<svg xmlns="http://www.w3.org/2000/svg" width="224.001" height="55" viewBox="0 0 224.001 55">
  <g id="Logo_copy" data-name="Logo copy" transform="translate(-18810.001 -251)">
    <g id="Logo_copy-2" data-name="Logo copy" transform="translate(18773.135 223.486)">
      <g id="Group_53" data-name="Group 53">
        <g id="Group_52" data-name="Group 52">
          <path id="Path_229" data-name="Path 229" d="M126.668,55.333h17v4.4H133.573v3.575h8.621v4.133h-8.621V75.8h-6.906Z" fill="#2d84c7"/>
          <path id="Path_230" data-name="Path 230" d="M147.37,55.333h6.875v15.43h10.731V75.8H147.37Z" fill="#2d84c7"/>
          <path id="Path_231" data-name="Path 231" d="M181.777,55.333h6.86v12.2a9.534,9.534,0,0,1-.615,3.426,7.347,7.347,0,0,1-1.928,2.819,7.776,7.776,0,0,1-2.755,1.7,14.975,14.975,0,0,1-4.811.683,32.992,32.992,0,0,1-3.544-.209,9.888,9.888,0,0,1-3.21-.831,7.942,7.942,0,0,1-2.36-1.765,6.363,6.363,0,0,1-1.465-2.358,11.342,11.342,0,0,1-.638-3.461v-12.2h6.86V67.819a3.4,3.4,0,0,0,1.009,2.616,4.638,4.638,0,0,0,5.585.014,3.392,3.392,0,0,0,1.01-2.63Z" fill="#2d84c7"/>
          <path id="Path_232" data-name="Path 232" d="M193.175,55.333H211.6V59.7H200.065v3.254h10.7v4.175h-10.7v4.036h11.869V75.8H193.175Z" fill="#2d84c7"/>
          <path id="Path_233" data-name="Path 233" d="M215.683,55.333h6.42l8.378,11.325V55.333h6.481V75.8h-6.481l-8.333-11.24V75.8h-6.465Z" fill="#2d84c7"/>
          <path id="Path_234" data-name="Path 234" d="M239.967,55.333h20.9v5.055h-7.012V75.8h-6.875V60.388h-7.012Z" fill="#2d84c7"/>
        </g>
        <path id="Path_235" data-name="Path 235" d="M98.947,60.8l-.494,2.156c-.418-.731-1.521-2.271-5.247-2.463s-7.377,3.31-7.719,7.7,1.521,6.543,5.247,6.7A6.335,6.335,0,0,0,96.1,72.808c-.3,4-1.027,4.926-3.5,5.081s-2.32-1.5-2.32-1.5l-5.856-.5v2.54s-.19,2.932,7.11,2.925c9.278.231,10.248-5.465,10.248-5.465L104.613,60.8Zm-1.99,8.129a3.363,3.363,0,0,1-4.242,1.735c-1.412-.708-1.357-2.791-.557-4.424s2.616-2.558,4.028-1.85S97.757,67.3,96.957,68.93Z" fill="#2d84c7"/>
        <path id="Path_236" data-name="Path 236" d="M115.2,60.629s-8.307,1.195-9.121,7.748,4.357,7.3,5.823,7.625,11.279.289,12.786-7.686S117.085,60.172,115.2,60.629Zm.529,11.457s-3.258.7-3.583-1.731c0-5.688,3.278-5.729,3.278-5.729,3.237-.7,3.278,1.855,3.278,1.855C118.825,71.262,115.731,72.086,115.731,72.086Z" fill="#2d84c7"/>
        <path id="Path_237" data-name="Path 237" d="M85.853,54.225C84.94,51.3,76.5,30.979,76.5,30.979s-1.369-2.964-2.205-3.31a11.471,11.471,0,0,0-3.5,0s-30.039,4.311-33.8,25.787c0,0-2.338,12.489,13.118,22.131a51.145,51.145,0,0,0,25.951,6.928s2-1.443,1.2-7.736c0,0-12.491.808-16.312-7.967,0,0-.741-2.887,1.426-.75s12.134,6.6,14.772,1.443l-.266-7.274S76.727,56.381,85.092,57C85.092,57,86.765,57.15,85.853,54.225ZM65.591,43.345a2.291,2.291,0,1,1,2.263-2.29A2.277,2.277,0,0,1,65.591,43.345Z" fill="#2d84c7"/>
      </g>
    </g>
    <path id="Color_Overlay" data-name="Color Overlay" d="M18823.244,299.073c-15.453-9.645-13.117-22.131-13.117-22.131,3.764-21.477,33.8-25.786,33.8-25.786a11.417,11.417,0,0,1,3.5,0c.836.344,2.207,3.31,2.207,3.31s8.436,20.321,9.354,23.244-.764,2.771-.764,2.771c-8.365-.616-8.213,3.234-8.213,3.234l.264,7.275c-2.637,5.159-12.6.693-14.77-1.443s-1.424.75-1.424.75c3.816,8.775,16.313,7.968,16.313,7.968.8,6.291-1.2,7.734-1.2,7.734A51.161,51.161,0,0,1,18823.244,299.073Zm13.219-34.532a2.262,2.262,0,1,0,2.264-2.293A2.273,2.273,0,0,0,18836.463,264.54Zm28.207,40.3c-7.3.01-7.113-2.923-7.113-2.923v-2.541l5.857.5s-.154,1.653,2.316,1.5,3.2-1.08,3.5-5.083a6.346,6.346,0,0,1-5.365,2.083c-3.727-.158-5.588-2.312-5.244-6.7s3.988-7.891,7.719-7.7,4.83,1.734,5.244,2.465l.5-2.154h5.666l-2.834,15.085s-.936,5.474-9.707,5.474C18865.033,304.848,18864.852,304.843,18864.67,304.838Zm.621-15.114c-.8,1.634-.855,3.716.559,4.428a3.364,3.364,0,0,0,4.242-1.739c.8-1.634.641-3.831-.77-4.538a2.315,2.315,0,0,0-1.031-.239A3.557,3.557,0,0,0,18865.291,289.724Zm82.826,9.707a10.04,10.04,0,0,1-3.205-.831,7.813,7.813,0,0,1-2.359-1.767,6.319,6.319,0,0,1-1.467-2.355,11.359,11.359,0,0,1-.641-3.463v-12.2h6.859v12.487a3.407,3.407,0,0,0,1.014,2.618,4.631,4.631,0,0,0,5.584.01,3.377,3.377,0,0,0,1.008-2.627V278.818h6.859v12.2a9.607,9.607,0,0,1-.611,3.425,7.337,7.337,0,0,1-1.93,2.818,7.677,7.677,0,0,1-2.756,1.7,14.867,14.867,0,0,1-4.811.683A33.144,33.144,0,0,1,18948.117,299.431Zm-63.078.057c-1.467-.33-6.641-1.075-5.824-7.624s9.119-7.748,9.119-7.748c1.887-.459,11-.291,9.492,7.686-1.262,6.654-8.3,7.782-11.449,7.782A7.158,7.158,0,0,1,18885.039,299.488Zm3.52-11.379s-3.275.043-3.275,5.732c.324,2.431,3.582,1.729,3.582,1.729s3.1-.822,2.971-5.6a2.053,2.053,0,0,0-2.24-1.978A5.163,5.163,0,0,0,18888.559,288.11Zm131.557,11.178V283.872h-7.012v-5.054h20.9v5.054h-7.014v15.415Zm-16.5,0-8.33-11.24v11.24h-6.469V278.818h6.42l8.379,11.326V278.818h6.482v20.469Zm-37.3,0V278.818h18.42v4.371H18973.2v3.253h10.7v4.175h-10.7v4.036h11.865v4.634Zm-45.811,0V278.818h6.879v15.429h10.729v5.04Zm-20.7,0V278.818h17v4.4h-10.094v3.573h8.621v4.132h-8.621v8.364Z" fill="#16aae7"/>
  </g>
</svg>
